<?xml version="1.0" standalone="no"?>
<!DOCTYPE svg PUBLIC "-//W3C//DTD SVG 20010904//EN"
 "http://www.w3.org/TR/2001/REC-SVG-20010904/DTD/svg10.dtd">
<svg version="1.0" xmlns="http://www.w3.org/2000/svg"
 width="1408.000000pt" height="736.000000pt" viewBox="0 0 1408.000000 736.000000"
 preserveAspectRatio="xMidYMid meet">

<g transform="translate(0.000000,736.000000) scale(0.100000,-0.100000)"
fill="currentColor" stroke="none" class="svg-icon">
<path d="M6683 6519 c-91 -11 -205 -48 -308 -102 -58 -30 -104 -66 -166 -127
-127 -125 -186 -228 -230 -400 -28 -106 -27 -295 1 -405 77 -298 296 -521 597
-607 64 -19 102 -23 213 -22 158 1 243 20 372 84 112 56 155 88 235 174 155
166 227 353 226 586 -3 423 -311 766 -734 820 -92 11 -102 11 -206 -1z m489
-436 c43 -43 78 -83 78 -89 0 -6 -10 -19 -21 -30 -12 -10 -75 -77 -142 -147
l-120 -128 142 -143 c77 -79 141 -150 141 -158 0 -7 -36 -49 -80 -93 l-80 -80
-150 150 -150 150 -150 -150 -150 -150 -80 80 c-44 44 -80 85 -80 91 0 7 62
76 138 154 75 78 137 145 137 150 0 5 -60 72 -132 148 -73 77 -133 146 -133
154 0 17 141 158 158 158 7 0 75 -63 151 -139 l140 -140 143 145 c79 79 147
144 153 144 5 0 45 -35 87 -77z"/>
<path d="M6553 4575 c-80 -22 -146 -60 -189 -108 -22 -24 -52 -47 -68 -51 -63
-15 -123 -112 -152 -246 -14 -59 -16 -100 -10 -205 4 -71 10 -148 14 -170 5
-25 3 -53 -5 -75 -27 -77 -2 -166 57 -205 16 -11 30 -23 30 -26 0 -3 -30 -19
-66 -34 -259 -110 -453 -349 -588 -723 -55 -154 -77 -237 -113 -422 -22 -117
-26 -169 -30 -396 -4 -207 -2 -281 10 -360 32 -199 92 -328 207 -445 170 -172
415 -233 660 -166 71 20 126 27 220 30 219 7 329 63 512 258 l104 109 84 -152
85 -153 48 -1 c45 -1 49 -3 76 -46 16 -24 41 -54 56 -66 28 -22 29 -22 534
-22 381 0 510 3 519 12 16 16 15 83 -2 116 -21 40 -61 74 -151 130 -68 42 -80
53 -77 74 2 13 -40 161 -92 329 -52 167 -122 396 -156 508 -82 271 -95 304
-147 368 l-44 54 20 62 c29 90 40 172 56 431 18 286 19 262 -4 283 -16 15 -19
36 -23 124 -3 95 -7 112 -36 172 -81 165 -281 228 -398 125 -39 -34 -64 -76
-64 -107 0 -11 -6 -24 -14 -28 -21 -12 -36 -48 -36 -85 1 -48 31 -107 83 -157
37 -36 44 -48 37 -65 -4 -12 -11 -65 -15 -117 -4 -53 -11 -102 -15 -109 -8
-13 -18 -8 -227 121 -40 24 -73 48 -73 54 0 5 20 30 44 55 159 162 219 435
151 693 -8 32 -15 64 -15 72 0 7 29 36 64 63 80 63 114 127 123 228 9 118 -27
201 -107 242 -57 30 -111 25 -200 -17 -83 -40 -148 -41 -251 -5 -183 63 -317
78 -426 49z m210 -55 c37 -6 118 -26 180 -47 143 -46 207 -48 292 -9 115 54
155 55 205 5 44 -44 58 -120 37 -204 -40 -160 -159 -235 -373 -235 -115 0
-180 12 -387 70 -163 45 -194 48 -230 20 -31 -24 -43 -62 -51 -155 -7 -73 -31
-161 -47 -171 -6 -3 -21 2 -35 11 -26 17 -89 17 -125 1 -21 -9 -25 7 -41 147
-14 135 -2 234 43 324 30 62 62 93 74 73 14 -23 44 -8 69 35 39 66 118 115
216 134 62 12 94 12 173 1z m-48 -486 c259 -71 363 -84 496 -63 38 7 72 9 75
6 17 -17 44 -171 44 -252 0 -179 -58 -325 -174 -441 -161 -160 -370 -196 -573
-98 -95 45 -181 126 -224 208 l-33 64 22 19 c36 28 20 50 -40 55 -43 5 -57 11
-85 42 -47 51 -47 104 1 152 39 39 60 42 115 13 35 -18 43 -19 68 -7 44 21 81
106 93 217 6 52 16 101 22 108 16 20 53 16 193 -23z m1015 -387 c90 -46 140
-148 140 -287 l0 -77 -133 -7 -134 -7 -67 63 c-70 64 -96 102 -96 137 0 48 52
36 80 -20 23 -44 53 -52 70 -18 10 17 7 27 -14 58 -14 20 -39 44 -56 54 -16
10 -30 23 -30 28 0 29 35 73 73 90 50 23 101 19 167 -14z m-1442 -254 c15 -49
90 -148 144 -191 54 -44 165 -97 243 -117 117 -30 250 -15 376 41 l56 26 94
-58 c52 -32 98 -61 103 -65 8 -7 -102 -344 -123 -378 -6 -10 -21 -4 -63 23
l-55 37 18 87 c21 99 18 122 -16 122 -20 0 -26 -7 -33 -37 -48 -198 -64 -258
-72 -268 -5 -6 -32 -17 -59 -24 -52 -13 -137 -67 -208 -132 -24 -22 -45 -39
-47 -39 -5 0 -33 91 -101 335 -27 94 -52 176 -58 183 -14 17 -46 15 -54 -4 -3
-9 7 -61 24 -116 17 -54 26 -101 22 -104 -20 -12 -384 -114 -394 -110 -6 2
-24 44 -39 94 -29 90 -42 107 -71 96 -23 -9 -19 -28 34 -195 96 -301 145 -433
178 -481 18 -28 33 -55 33 -60 0 -6 -37 -52 -82 -102 -46 -50 -99 -110 -118
-134 -33 -39 -43 -44 -155 -77 -66 -19 -174 -52 -240 -74 l-120 -40 -9 32
c-12 45 0 423 18 543 51 341 157 652 293 856 65 98 182 219 257 266 53 34 190
101 207 102 3 0 11 -17 17 -37z m1608 -330 c-14 -323 -34 -459 -82 -540 -61
-104 -176 -128 -309 -65 -92 44 -265 141 -265 150 0 12 123 357 131 366 4 4
26 -3 50 -17 l43 -26 -3 -59 c-2 -44 2 -62 14 -72 31 -26 43 7 59 168 9 84 16
168 16 187 0 18 5 37 10 40 9 6 178 19 304 24 l39 1 -7 -157z m-1350 -555 l39
-141 50 -22 c28 -12 173 -64 323 -115 312 -106 288 -86 251 -219 -24 -87 -62
-166 -82 -174 -14 -5 -173 26 -327 64 -122 30 -387 117 -441 144 -53 27 -109
86 -140 147 -23 44 -120 330 -114 336 3 3 386 121 396 122 3 0 23 -64 45 -142z
m654 16 c87 -39 151 -111 209 -237 70 -149 69 -137 8 -137 -29 0 -68 -3 -87
-6 -30 -5 -36 -2 -45 18 -13 30 -20 33 -310 133 -136 47 -251 88 -254 91 -9 9
84 88 139 118 113 62 232 69 340 20z m663 -111 c35 -37 81 -140 113 -249 14
-49 79 -262 144 -474 65 -212 120 -394 122 -405 3 -18 -8 -21 -117 -36 -160
-23 -184 -23 -192 -1 -13 38 -110 268 -194 461 -62 142 -89 215 -89 243 0 48
-21 91 -67 139 -19 20 -50 72 -68 115 -18 44 -47 110 -64 148 -26 56 -28 67
-14 61 173 -70 239 -77 315 -32 24 14 50 33 58 41 17 22 22 20 53 -11z m-351
-350 c74 -43 95 -127 52 -208 -43 -83 -139 -100 -257 -47 -35 16 -67 35 -71
41 -4 6 4 44 17 83 13 40 28 88 32 106 4 22 14 33 28 37 12 2 31 6 42 9 38 9
126 -3 157 -21z m-1188 -72 c44 -27 234 -91 409 -137 l149 -39 39 -78 40 -78
-163 -197 c-214 -260 -321 -367 -415 -414 -292 -146 -627 -42 -792 245 -32 57
-85 225 -79 254 2 13 49 32 193 79 105 34 192 60 193 58 2 -1 -7 -16 -19 -34
-18 -24 -21 -35 -13 -48 21 -32 39 -23 98 50 103 126 309 358 319 358 5 0 24
-9 41 -19z m1422 -456 c58 -137 107 -261 107 -274 2 -23 -7 -28 -133 -68 -159
-51 -352 -103 -362 -97 -3 2 -23 35 -44 72 -20 37 -106 190 -191 340 -85 150
-152 276 -149 279 3 4 29 1 57 -5 68 -16 110 -15 136 3 21 14 26 13 75 -14 58
-32 147 -61 187 -61 53 0 105 23 150 65 39 38 47 42 53 27 4 -9 56 -129 114
-267z m-691 -35 c29 -53 44 -92 41 -105 -8 -31 -180 -209 -250 -259 -33 -24
-79 -51 -101 -60 -60 -23 -164 -46 -215 -46 l-45 0 63 57 c67 59 183 190 346
391 55 67 103 119 107 115 4 -5 28 -46 54 -93z m1192 -314 c4 -8 46 -38 93
-66 98 -60 126 -84 146 -123 12 -22 12 -28 1 -32 -7 -3 -89 -4 -181 -3 l-169
3 -13 47 c-11 34 -28 59 -70 97 -31 29 -55 53 -53 56 2 2 54 10 114 18 61 8
113 15 117 16 4 0 11 -5 15 -13z m-313 -71 c81 -49 136 -104 136 -135 0 -19
-8 -20 -261 -20 l-261 0 -35 35 c-19 19 -33 40 -31 46 4 12 318 116 355 118
12 1 56 -19 97 -44z"/>
<path d="M7019 3864 c-28 -34 38 -82 125 -91 47 -5 55 -3 65 15 14 27 -1 37
-63 46 -27 3 -63 15 -81 26 -29 18 -34 19 -46 4z"/>
<path d="M6736 3855 c-13 -10 -42 -15 -82 -15 -49 0 -63 -4 -68 -17 -12 -31
19 -47 85 -46 75 2 124 28 124 64 0 29 -30 36 -59 14z"/>
<path d="M6917 3734 c-12 -12 -8 -59 8 -104 21 -59 19 -70 -10 -70 -20 0 -25
-5 -25 -25 0 -32 42 -45 79 -24 35 20 38 66 8 154 -22 64 -42 87 -60 69z"/>
<path d="M6659 3706 c-25 -53 25 -110 66 -76 18 15 20 71 3 88 -21 21 -57 14
-69 -12z"/>
<path d="M7084 3705 c-22 -33 -11 -73 21 -81 33 -8 55 11 55 47 0 30 -23 59
-45 59 -8 0 -22 -11 -31 -25z"/>
<path d="M6767 3446 c-48 -18 -67 -34 -67 -58 0 -26 27 -34 59 -15 61 36 158
29 196 -13 21 -24 51 -26 59 -5 9 25 -4 44 -50 71 -54 32 -142 41 -197 20z"/>
</g>
</svg>
